<svg width="30" height="30" viewBox="0 0 30 30" fill="none" xmlns="http://www.w3.org/2000/svg">
<rect width="30" height="30" rx="15" fill="url(#paint0_radial_105_22)"/>
<rect width="30" height="30" rx="15" fill="url(#paint1_radial_105_22)"/>
<rect width="30" height="30" rx="15" fill="url(#paint2_radial_105_22)"/>
<path d="M22 9.5C22 10.3284 21.3284 11 20.5 11C19.6716 11 19 10.3284 19 9.5C19 8.67157 19.6716 8 20.5 8C21.3284 8 22 8.67157 22 9.5Z" fill="white"/>
<path fill-rule="evenodd" clip-rule="evenodd" d="M15 20C17.7614 20 20 17.7614 20 15C20 12.2386 17.7614 10 15 10C12.2386 10 10 12.2386 10 15C10 17.7614 12.2386 20 15 20ZM15 18C16.6569 18 18 16.6569 18 15C18 13.3431 16.6569 12 15 12C13.3431 12 12 13.3431 12 15C12 16.6569 13.3431 18 15 18Z" fill="white"/>
<path fill-rule="evenodd" clip-rule="evenodd" d="M5 14.6C5 11.2397 5 9.55953 5.65396 8.27606C6.2292 7.14708 7.14708 6.2292 8.27606 5.65396C9.55953 5 11.2397 5 14.6 5H15.4C18.7603 5 20.4405 5 21.7239 5.65396C22.8529 6.2292 23.7708 7.14708 24.346 8.27606C25 9.55953 25 11.2397 25 14.6V15.4C25 18.7603 25 20.4405 24.346 21.7239C23.7708 22.8529 22.8529 23.7708 21.7239 24.346C20.4405 25 18.7603 25 15.4 25H14.6C11.2397 25 9.55953 25 8.27606 24.346C7.14708 23.7708 6.2292 22.8529 5.65396 21.7239C5 20.4405 5 18.7603 5 15.4V14.6ZM14.6 7H15.4C17.1132 7 18.2777 7.00156 19.1779 7.0751C20.0548 7.14674 20.5032 7.27659 20.816 7.43597C21.5686 7.81947 22.1805 8.43139 22.564 9.18404C22.7234 9.49684 22.8533 9.94524 22.9249 10.8221C22.9984 11.7223 23 12.8868 23 14.6V15.4C23 17.1132 22.9984 18.2777 22.9249 19.1779C22.8533 20.0548 22.7234 20.5032 22.564 20.816C22.1805 21.5686 21.5686 22.1805 20.816 22.564C20.5032 22.7234 20.0548 22.8533 19.1779 22.9249C18.2777 22.9984 17.1132 23 15.4 23H14.6C12.8868 23 11.7223 22.9984 10.8221 22.9249C9.94524 22.8533 9.49684 22.7234 9.18404 22.564C8.43139 22.1805 7.81947 21.5686 7.43597 20.816C7.27659 20.5032 7.14674 20.0548 7.0751 19.1779C7.00156 18.2777 7 17.1132 7 15.4V14.6C7 12.8868 7.00156 11.7223 7.0751 10.8221C7.14674 9.94524 7.27659 9.49684 7.43597 9.18404C7.81947 8.43139 8.43139 7.81947 9.18404 7.43597C9.49684 7.27659 9.94524 7.14674 10.8221 7.0751C11.7223 7.00156 12.8868 7 14.6 7Z" fill="white"/>
<defs>
<radialGradient id="paint0_radial_105_22" cx="0" cy="0" r="1" gradientUnits="userSpaceOnUse" gradientTransform="translate(10.7143 22.5) rotate(-55.3758) scale(27.3424)">
<stop stop-color="#B13589"/>
<stop offset="0.79309" stop-color="#C62F94"/>
<stop offset="1" stop-color="#8A3AC8"/>
</radialGradient>
<radialGradient id="paint1_radial_105_22" cx="0" cy="0" r="1" gradientUnits="userSpaceOnUse" gradientTransform="translate(9.64286 31.0714) rotate(-65.1363) scale(24.2081)">
<stop stop-color="#E0E8B7"/>
<stop offset="0.444662" stop-color="#FB8A2E"/>
<stop offset="0.71474" stop-color="#E2425C"/>
<stop offset="1" stop-color="#E2425C" stop-opacity="0"/>
</radialGradient>
<radialGradient id="paint2_radial_105_22" cx="0" cy="0" r="1" gradientUnits="userSpaceOnUse" gradientTransform="translate(-1.60714 1.07143) rotate(-8.1301) scale(41.6688 8.91252)">
<stop offset="0.156701" stop-color="#406ADC"/>
<stop offset="0.467799" stop-color="#6A45BE"/>
<stop offset="1" stop-color="#6A45BE" stop-opacity="0"/>
</radialGradient>
</defs>
</svg>
