<svg width="30" height="30" viewBox="0 0 30 30" fill="none" xmlns="http://www.w3.org/2000/svg">
<rect width="30" height="30" rx="15" fill="#0077B5"/>
<path fill-rule="evenodd" clip-rule="evenodd" d="M12.7504 12.3479H16.0001V13.9666C16.4682 13.0356 17.6687 12.1991 19.4721 12.1991C22.9293 12.1991 23.75 14.0524 23.75 17.4526V23.75H20.25V18.227C20.25 16.2906 19.7819 15.1986 18.5901 15.1986C16.9373 15.1986 16.2504 16.3755 16.2504 18.2261V23.75H12.7504V12.3479V12.3479ZM6.74875 23.6012H10.2488V12.1991H6.74875V23.6012V23.6012ZM10.7501 8.48125C10.7503 8.77462 10.6921 9.06508 10.579 9.33576C10.4659 9.60645 10.3001 9.85195 10.0912 10.058C9.6681 10.4785 9.09533 10.7139 8.49875 10.7125C7.90322 10.7121 7.33177 10.4773 6.908 10.0589C6.69993 9.85212 6.53471 9.60635 6.4218 9.33563C6.30889 9.06491 6.25051 8.77457 6.25 8.48125C6.25 7.88888 6.48625 7.32188 6.90888 6.90363C7.33227 6.48464 7.90396 6.24974 8.49963 6.25C9.09638 6.25 9.66862 6.48538 10.0912 6.90363C10.513 7.32188 10.7501 7.88888 10.7501 8.48125Z" fill="white"/>
</svg>
